<?xml version="1.0"?>
<svg xmlns="http://www.w3.org/2000/svg" xmlns:xlink="http://www.w3.org/1999/xlink" xmlns:svgjs="http://svgjs.com/svgjs" version="1.1" width="512" height="512" x="0" y="0" viewBox="0 0 512 512" style="enable-background:new 0 0 512 512" xml:space="preserve" class=""><g>
<g xmlns="http://www.w3.org/2000/svg">
	<g>
		<path d="M423.518,329.306c-27.177-27.177-59.8-46.921-95.402-58.25c43.598-25.067,73.02-72.122,73.02-125.919    C401.138,65.109,336.03,0,256.001,0S110.864,65.109,110.864,145.137c0,53.798,29.423,100.852,73.02,125.919    c-35.601,11.328-68.224,31.072-95.402,58.25c-44.745,44.746-69.387,104.237-69.387,167.516c0,8.382,6.796,15.178,15.178,15.178    h443.452c8.382,0,15.178-6.796,15.178-15.178C492.905,433.542,468.263,374.051,423.518,329.306z M256.003,224.984    c-8.509,0-14.81-6.955-15.178-15.178c-0.367-8.197,7.239-15.178,15.178-15.178c8.509,0,14.81,6.955,15.178,15.178    C271.547,218.003,263.942,224.984,256.003,224.984z M271.179,157.016v10.293c0,8.382-6.796,15.178-15.178,15.178    c-8.382,0-15.178-6.796-15.178-15.178v-22.962c0-8.382,6.796-15.178,15.178-15.178c9.242,0,16.761-7.519,16.761-16.762    c0-9.242-7.519-16.762-16.761-16.762c-9.241,0-16.761,7.519-16.761,16.762c0,8.382-6.796,15.178-15.178,15.178    c-8.382,0-15.178-6.796-15.178-15.178c0-25.981,21.137-47.118,47.117-47.118c25.98,0,47.117,21.137,47.117,47.118    C303.119,133.081,289.737,150.686,271.179,157.016z" fill="#333333" data-original="#000000" style="" class=""/>
	</g>
</g>
<g xmlns="http://www.w3.org/2000/svg">
</g>
<g xmlns="http://www.w3.org/2000/svg">
</g>
<g xmlns="http://www.w3.org/2000/svg">
</g>
<g xmlns="http://www.w3.org/2000/svg">
</g>
<g xmlns="http://www.w3.org/2000/svg">
</g>
<g xmlns="http://www.w3.org/2000/svg">
</g>
<g xmlns="http://www.w3.org/2000/svg">
</g>
<g xmlns="http://www.w3.org/2000/svg">
</g>
<g xmlns="http://www.w3.org/2000/svg">
</g>
<g xmlns="http://www.w3.org/2000/svg">
</g>
<g xmlns="http://www.w3.org/2000/svg">
</g>
<g xmlns="http://www.w3.org/2000/svg">
</g>
<g xmlns="http://www.w3.org/2000/svg">
</g>
<g xmlns="http://www.w3.org/2000/svg">
</g>
<g xmlns="http://www.w3.org/2000/svg">
</g>
</g></svg>
